<?xml version="1.0" standalone="no"?><!DOCTYPE svg PUBLIC "-//W3C//DTD SVG 1.1//EN" "http://www.w3.org/Graphics/SVG/1.1/DTD/svg11.dtd"><svg t="1711014894108" class="icon" viewBox="0 0 1024 1024" version="1.1" xmlns="http://www.w3.org/2000/svg" p-id="4716" xmlns:xlink="http://www.w3.org/1999/xlink" width="300" height="300"><path d="M960 275.2c-16-32-48-51.2-89.6-64-19.2-3.2-38.4-6.4-60.8-9.6-6.4 0-19.2 0-38.4 3.2-12.8 3.2-19.2 3.2-22.4 3.2-28.8-22.4-60.8-41.6-96-54.4C608 137.6 560 128 512 128c-48 0-96 9.6-140.8 25.6-51.2 22.4-92.8 48-131.2 86.4s-64 80-86.4 131.2C137.6 416 128 464 128 512v32l-3.2 3.2c-73.6 89.6-92.8 163.2-60.8 224 32 57.6 105.6 80 220.8 67.2 6.4 0 12.8 0 19.2-3.2 22.4 12.8 44.8 25.6 67.2 35.2 44.8 16 92.8 25.6 140.8 25.6 48 0 96-9.6 140.8-25.6 48-19.2 92.8-48 131.2-86.4 38.4-38.4 67.2-80 86.4-131.2 16-44.8 25.6-92.8 25.6-140.8v-9.6c0-3.2 3.2-3.2 3.2-6.4 73.6-89.6 96-163.2 60.8-220.8zM121.6 739.2c-16-25.6-6.4-64 25.6-112 3.2 9.6 6.4 16 9.6 25.6 19.2 48 44.8 86.4 80 124.8-64 3.2-99.2-9.6-115.2-38.4z m688-108.8c-16 41.6-41.6 76.8-70.4 108.8-32 32-67.2 54.4-108.8 70.4-38.4 16-76.8 22.4-118.4 22.4-38.4 0-73.6-6.4-108.8-19.2 70.4-19.2 144-51.2 220.8-92.8 80-44.8 147.2-92.8 204.8-144-6.4 19.2-12.8 35.2-19.2 54.4z m-217.6 32c-96 54.4-185.6 89.6-272 105.6-12.8-9.6-22.4-19.2-32-28.8-32-32-54.4-67.2-70.4-108.8-19.2-38.4-25.6-76.8-25.6-118.4s6.4-80 22.4-118.4C230.4 352 256 316.8 284.8 284.8s67.2-54.4 108.8-70.4c38.4-16 76.8-22.4 118.4-22.4 41.6 0 80 6.4 118.4 22.4 41.6 16 76.8 41.6 108.8 70.4 32 32 54.4 67.2 70.4 108.8 9.6 28.8 19.2 57.6 22.4 86.4-60.8 67.2-140.8 128-240 182.4z m291.2-249.6c-3.2-12.8-9.6-28.8-12.8-41.6-16-38.4-35.2-73.6-60.8-102.4 19.2 0 35.2 3.2 48 6.4 25.6 6.4 41.6 16 48 32 12.8 25.6 6.4 60.8-22.4 105.6z" fill="#e6e6e6" p-id="4717"></path><path d="M422.4 288c0 12.8-6.4 22.4-16 28.8-51.2 28.8-86.4 70.4-105.6 128-3.2 12.8-16 22.4-32 22.4-19.2 0-32-12.8-32-32v-9.6c22.4-73.6 70.4-128 134.4-163.2 6.4-6.4 12.8-6.4 19.2-6.4 16 0 32 12.8 32 32z" fill="#e6e6e6" p-id="4718"></path></svg>