<?xml version="1.0" standalone="no"?><!DOCTYPE svg PUBLIC "-//W3C//DTD SVG 1.1//EN" "http://www.w3.org/Graphics/SVG/1.1/DTD/svg11.dtd"><svg t="1711014835960" class="icon" viewBox="0 0 1026 1024" version="1.1" xmlns="http://www.w3.org/2000/svg" p-id="4308" xmlns:xlink="http://www.w3.org/1999/xlink" width="300.5859375" height="300"><path d="M441.571072 263.68m-84.48 0a3.3 3.3 0 1 0 168.96 0 3.3 3.3 0 1 0-168.96 0Z" p-id="4309" fill="#e6e6e6"></path><path d="M280.291072 537.6m-48.64 0a1.9 1.9 0 1 0 97.28 0 1.9 1.9 0 1 0-97.28 0Z" p-id="4310" fill="#e6e6e6"></path><path d="M664.291072 775.68m-33.28 0a1.3 1.3 0 1 0 66.56 0 1.3 1.3 0 1 0-66.56 0Z" p-id="4311" fill="#e6e6e6"></path><path d="M940.771072 235.52c5.12-7.68 10.24-15.36 15.36-23.04 20.48-38.4 53.76-97.28 35.84-151.04-10.24-25.6-28.16-38.4-40.96-43.52-46.08-15.36-107.52 23.04-117.76 30.72-12.8 7.68-15.36 23.04-7.68 35.84 7.68 12.8 23.04 15.36 35.84 7.68 20.48-12.8 56.32-30.72 74.24-23.04 2.56 0 5.12 2.56 7.68 10.24 10.24 30.72-15.36 76.8-33.28 110.08-43.52 79.36-102.4 151.04-161.28 225.28-138.24 168.96-296.96 312.32-486.4 435.2-7.68 5.12-15.36 10.24-25.6 15.36-102.4-81.92-168.96-209.92-168.96-353.28 0-250.88 202.24-453.12 453.12-453.12 56.32 0 107.52 10.24 156.16 28.16l0 0c2.56 0 5.12 2.56 7.68 2.56 15.36 0 25.6-10.24 25.6-25.6 0-10.24-7.68-20.48-17.92-23.04-53.76-20.48-112.64-30.72-174.08-30.72C241.891072 7.68 16.611072 232.96 16.611072 512c0 87.04 23.04 168.96 61.44 240.64-10.24 15.36-46.08 64-69.12 120.32-15.36 35.84-10.24 69.12 10.24 92.16 15.36 17.92 40.96 28.16 69.12 28.16 10.24 0 23.04-2.56 33.28-5.12 40.96-12.8 79.36-35.84 112.64-58.88 81.92 56.32 179.2 89.6 286.72 89.6C799.971072 1016.32 1025.251072 791.04 1025.251072 512 1025.251072 409.6 994.531072 314.88 940.771072 235.52zM106.211072 936.96c-17.92 5.12-38.4 2.56-48.64-7.68-10.24-10.24-5.12-25.6-2.56-38.4 15.36-35.84 35.84-71.68 51.2-92.16 25.6 35.84 53.76 66.56 84.48 94.72C165.091072 911.36 136.931072 926.72 106.211072 936.96zM520.931072 965.12c-87.04 0-168.96-25.6-238.08-69.12 2.56-2.56 5.12-2.56 7.68-5.12 192-125.44 355.84-271.36 496.64-445.44 43.52-53.76 84.48-104.96 122.88-161.28 38.4 66.56 64 145.92 64 227.84C974.051072 762.88 771.811072 965.12 520.931072 965.12z" p-id="4312" fill="#e6e6e6"></path></svg>