<?xml version="1.0" standalone="no"?><!DOCTYPE svg PUBLIC "-//W3C//DTD SVG 1.1//EN" "http://www.w3.org/Graphics/SVG/1.1/DTD/svg11.dtd"><svg t="1696695701600" class="icon" viewBox="0 0 1024 1024" version="1.1" xmlns="http://www.w3.org/2000/svg" p-id="4041" xmlns:xlink="http://www.w3.org/1999/xlink" width="300" height="300"><path d="M640.733455 268.652669c10.704806-3.568269 22.141276-5.469572 34.014698-5.469572 60.835553 0 110.147656 50.27708 110.147656 112.310925s-49.311079 112.310925-110.147656 112.310925c-2.455935 0-4.912893-0.086981-7.341199-0.26299l0 0.26299c-12.31242 0.088004-22.25691 9.974166-22.25691 21.526269 0 11.58178 9.94449 23.280216 22.25691 23.39892l0 0.437975c4.767584-0.291642 9.564843-0.437975 14.405081-0.437975 129.757273 0 234.960313 107.251699 234.960313 239.597937 0 1.988284-0.028653 3.946892-0.072655 5.936199l0.044002 0c-0.028653 0.497327-0.059352 1.025353-0.059352 1.551332 0 12.401448 9.272177 22.462594 21.642926 22.462594 12.372795 0 23.281239-10.061147 23.281239-22.462594 0-1.432629-0.146333-2.837628-0.408299-4.183276 0.058328-2.572592 0.102331-5.146207 0.102331-7.750521 0-125.384685-79.583546-231.816716-190.081173-269.722024 35.199687-28.809139 57.720609-73.060993 57.720609-122.664737 0-86.836741-69.025073-157.243277-154.194848-157.243277-18.337647 0-35.930327 3.254114-52.235688 9.249665-17.403369 4.591575-22.37459 15.998369-20.795629 26.644847 1.696642 11.406794 9.740852 25.796526 27.054169 19.391652C634.269229 271.490298 638.087185 270.056646 640.733455 268.652669z" p-id="4042" fill="#e6e6e6"></path><path d="M344.600921 540.160363C212.737684 568.236815 112.871185 683.679058 107.547946 823.570131c0.453325 1.784646 0.703011 3.65525 0.703011 5.586229 0 12.429077-10.061147 22.462594-22.462594 22.462594-10.952446 0-20.062941-7.80885-22.052249-18.191314l-1.345648 0c0-0.088004 0-0.176009 0-0.264013 0-152.059208 98.082876-281.187147 234.30335-327.282998-48.76975-34.658358-80.606853-91.691305-80.606853-156.182109 0-31.382754 7.531534-60.981886 20.88261-87.09973-5.14723-7.984858-8.159844-17.489326-8.159844-27.696806 0-28.186969 22.812565-51.030234 50.919716-51.030234 8.306176 0 16.130376 1.973958 23.046902 5.498224 29.978778-19.61064 65.792449-31.017434 104.268762-31.017434 105.467053 0 190.957123 85.674265 190.957123 191.345979 0 64.490803-31.835056 121.523751-80.606853 156.182109C653.61688 551.97648 751.698732 681.104419 751.698732 833.163627c0 2.543939-0.028653 5.088902-0.086981 7.605212l-0.409322 0c-0.555655 11.904121-10.382465 21.409612-22.432918 21.409612-12.212136 0-22.141276-9.739828-22.462594-21.877263l-0.028653 0c0.014326-1.669012 0.028653-3.305279 0.028653-4.972245 0-145.243989-101.914134-266.535449-237.637282-295.225885-0.819668 0.058328-1.638313 0.115634-2.472308 0.115634-14.476713 0-26.204825-11.728112-26.204825-26.205848 0-14.302751 11.465123-25.942859 25.693172-26.205848 53.568033-22.871917 91.106997-76.102259 91.106997-138.107451 0-82.859149-67.036789-150.048411-149.748582-150.048411-33.254382 0-63.964824 10.851139-88.826048 29.226648-4.621251-2.924609-10.119475-4.621251-15.998369-4.621251-16.539698 0-29.950126 13.424754-29.950126 30.008454 0 6.9022 2.340301 13.278421 6.258541 18.367323-13.483082 22.520923-21.233604 48.873104-21.233604 77.067236 0 62.443168 38.051641 115.967198 92.188632 138.575102-0.044002 0.086981-0.086981 0.174985-0.116657 0.26299 11.480472 2.778276 20.005636 13.132088 20.005636 25.475208C369.373117 527.992229 358.405321 539.428699 344.600921 540.160363z" p-id="4043" fill="#e6e6e6"></path></svg>